<?xml version="1.0" encoding="UTF-8" standalone="no"?>
<svg
   xmlns:dc="http://purl.org/dc/elements/1.1/"
   xmlns:cc="http://creativecommons.org/ns#"
   xmlns:rdf="http://www.w3.org/1999/02/22-rdf-syntax-ns#"
   xmlns:svg="http://www.w3.org/2000/svg"
   xmlns="http://www.w3.org/2000/svg"
   viewBox="0 0 566.92932 226.772"
   height="226.772"
   width="566.92932"
   xml:space="preserve"
   id="svg2"
   version="1.1"><metadata
     id="metadata8"><rdf:RDF><cc:Work
         rdf:about=""><dc:format>image/svg+xml</dc:format><dc:type
           rdf:resource="http://purl.org/dc/dcmitype/StillImage" /></cc:Work></rdf:RDF></metadata><defs
     id="defs6"><clipPath
       id="clipPath20"
       clipPathUnits="userSpaceOnUse"><path
         id="path18"
         d="M 0,0 H 425.197 V 170.079 H 0 Z" /></clipPath><clipPath
       id="clipPath26"
       clipPathUnits="userSpaceOnUse"><path
         id="path24"
         d="m 62,51 h 301 v 54 H 62 Z" /></clipPath><clipPath
       id="clipPath30"
       clipPathUnits="userSpaceOnUse"><path
         id="path28"
         d="M 0,0 H 426 V 171 H 0 Z" /></clipPath><clipPath
       id="clipPath34"
       clipPathUnits="userSpaceOnUse"><path
         id="path32"
         d="M 0,0 H 425.197 V 170.079 H 0 Z" /></clipPath><clipPath
       id="clipPath38"
       clipPathUnits="userSpaceOnUse"><path
         id="path36"
         d="m 106,66 h 24 v 39 h -24 z" /></clipPath><clipPath
       id="clipPath42"
       clipPathUnits="userSpaceOnUse"><path
         id="path40"
         d="m 106.259,104.232 h 8.648 l 14.356,-37.999 -8.648,-0.001 z" /></clipPath><clipPath
       id="clipPath46"
       clipPathUnits="userSpaceOnUse"><path
         id="path44"
         d="m 106.259,66.2316 h 23.004 v 38.0004 h -23.004 z" /></clipPath><clipPath
       id="clipPath50"
       clipPathUnits="userSpaceOnUse"><path
         id="path48"
         d="M -32768,-32768 H 32767 V 32767 H -32768 Z" /></clipPath><linearGradient
       id="linearGradient56"
       spreadMethod="pad"
       gradientTransform="matrix(0,-29.83825,-29.83825,0,117.7615,104.2316)"
       gradientUnits="userSpaceOnUse"
       y2="0"
       x2="1"
       y1="0"
       x1="0"><stop
         id="stop52"
         offset="0"
         style="stop-opacity:1;stop-color:#ffffff" /><stop
         id="stop54"
         offset="1"
         style="stop-opacity:0;stop-color:#ffffff" /></linearGradient><mask
       id="mask58"
       height="1"
       width="1"
       y="0"
       x="0"
       maskUnits="userSpaceOnUse"><g
         id="g70"><g
           id="g68"
           clip-path="url(#clipPath50)"><g
             id="g60" /><g
             id="g66"><g
               id="g64"><path
                 id="path62"
                 style="fill:url(#linearGradient56);stroke:none"
                 d="M -32768,-32768 H 32767 V 32767 H -32768 Z" /></g></g></g></g></mask><linearGradient
       id="linearGradient76"
       spreadMethod="pad"
       gradientTransform="matrix(0,-29.83825,-29.83825,0,117.7615,104.2316)"
       gradientUnits="userSpaceOnUse"
       y2="0"
       x2="1"
       y1="0"
       x1="0"><stop
         id="stop72"
         offset="0"
         style="stop-opacity:1;stop-color:#1c62b6" /><stop
         id="stop74"
         offset="1"
         style="stop-opacity:1;stop-color:#1c62b6" /></linearGradient><clipPath
       id="clipPath80"
       clipPathUnits="userSpaceOnUse"><path
         id="path78"
         d="M 0,0 H 426 V 171 H 0 Z" /></clipPath><clipPath
       id="clipPath84"
       clipPathUnits="userSpaceOnUse"><path
         id="path82"
         d="M 0,0 H 425.197 V 170.079 H 0 Z" /></clipPath></defs><g
     transform="matrix(1.3333333,0,0,-1.3333333,0,226.772)"
     id="g10"><g
       id="g12" /><g
       id="g14"><g
         clip-path="url(#clipPath20)"
         id="g16"><g
           id="g22" /><g
           id="g150"><g
             id="g148"
             clip-path="url(#clipPath26)"><g
               id="g86" /><g
               id="g92"><g
                 id="g90"
                 clip-path="url(#clipPath30)"><path
                   id="path88"
                   style="fill:#36bcf1;fill-opacity:1;fill-rule:nonzero;stroke:none"
                   d="m 129.2635,66.2316 h -8.648 l -14.356,37.999 8.648,0.001 z" /></g></g><g
               id="g118"><g
                 id="g116"
                 clip-path="url(#clipPath34)"><g
                   id="g94" /><g
                   id="g114"><g
                     id="g112"
                     clip-path="url(#clipPath38)"><g
                       id="g96" /><g
                       id="g110"><g
                         id="g108"
                         clip-path="url(#clipPath42)"><g
                           id="g106"
                           clip-path="url(#clipPath46)"><g
                             id="g98" /><g
                             id="g104"
                             mask="url(#mask58)"><g
                               id="g102"><path
                                 id="path100"
                                 style="fill:url(#linearGradient76);stroke:none"
                                 d="m 106.259,66.2316 h 23.004 v 38.0004 h -23.004 z" /></g></g></g></g></g></g></g></g></g><g
               id="g130"><g
                 id="g128"
                 clip-path="url(#clipPath80)"><path
                   id="path120"
                   style="fill:#36bcf1;fill-opacity:1;fill-rule:nonzero;stroke:none"
                   d="m 106.9801,74.3118 9.777,-8.08 h 12.506 l -3.052,8.08 z" /><path
                   id="path122"
                   style="fill:#1c62b6;fill-opacity:1;fill-rule:nonzero;stroke:none"
                   d="m 106.2593,104.2313 8.648,-0.001 -17.589,-46.631 -10.998,-6.27 z" /><path
                   id="path124"
                   style="fill:#231f20;fill-opacity:1;fill-rule:nonzero;stroke:none"
                   d="m 85.2297,66.2316 -8.648,0.001 14.356,37.999 h 8.648 z" /><path
                   id="path126"
                   style="fill:#231f20;fill-opacity:1;fill-rule:nonzero;stroke:none"
                   d="m 62.2255,104.2313 h 8.648 l 14.356,-37.999 -8.648,-10e-4 z" /></g></g><g
               id="g146"><g
                 id="g144"
                 clip-path="url(#clipPath84)"><path
                   id="path132"
                   style="fill:#231f20;fill-opacity:1;fill-rule:nonzero;stroke:none"
                   d="m 150.8175,97.3004 h -8.494 v -10.49 h 8.494 c 3.249,0 5.701,2.053 5.701,5.245 0,3.193 -2.452,5.245 -5.701,5.245 m -2.565,-17.444 h -5.929 v -13.625 h -8.095 v 38.024 h 17.786 c 7.924,0 12.77,-5.188 12.77,-12.256 0,-6.728 -4.219,-10.319 -8.323,-11.288 l 8.55,-14.48 h -9.292 z" /><path
                   id="path134"
                   style="fill:#231f20;fill-opacity:1;fill-rule:nonzero;stroke:none"
                   d="m 189.4059,104.8819 c 7.867,0 12.827,-3.819 15.734,-8.323 l -6.727,-3.648 c -1.767,2.679 -5.017,4.788 -9.007,4.788 -6.898,0 -11.915,-5.301 -11.915,-12.484 0,-7.183 5.017,-12.484 11.915,-12.484 3.477,0 6.556,1.424 8.209,2.907 v 4.617 h -10.147 v 6.955 h 18.128 v -14.537 c -3.877,-4.332 -9.292,-7.183 -16.19,-7.183 -11.117,0 -20.238,7.753 -20.238,19.725 0,12.028 9.121,19.667 20.238,19.667" /><path
                   id="path136"
                   style="fill:#231f20;fill-opacity:1;fill-rule:nonzero;stroke:none"
                   d="m 228.5074,97.3004 h -8.494 v -10.49 h 8.494 c 3.249,0 5.7,2.053 5.7,5.245 0,3.193 -2.451,5.245 -5.7,5.245 m -2.565,-17.444 h -5.929 v -13.625 h -8.095 v 38.024 h 17.786 c 7.924,0 12.77,-5.188 12.77,-12.256 0,-6.728 -4.219,-10.319 -8.323,-11.288 l 8.55,-14.48 h -9.292 z" /><path
                   id="path138"
                   style="fill:#231f20;fill-opacity:1;fill-rule:nonzero;stroke:none"
                   d="m 266.7535,97.6993 c -7.012,0 -11.516,-5.358 -11.516,-12.484 0,-7.07 4.504,-12.485 11.516,-12.485 7.012,0 11.572,5.415 11.572,12.485 0,7.126 -4.56,12.484 -11.572,12.484 m 0,7.183 c 11.516,0 19.896,-8.209 19.896,-19.667 0,-11.458 -8.38,-19.667 -19.896,-19.667 -11.458,0 -19.838,8.209 -19.838,19.667 0,11.458 8.38,19.667 19.838,19.667" /><path
                   id="path140"
                   style="fill:#231f20;fill-opacity:1;fill-rule:nonzero;stroke:none"
                   d="m 292.3444,104.2549 h 8.209 v -22.574 c 0,-5.302 2.907,-8.95 8.836,-8.95 5.814,0 8.722,3.648 8.722,8.95 v 22.574 h 8.209 v -22.803 c 0,-9.463 -5.415,-15.904 -16.931,-15.904 -11.63,0 -17.045,6.498 -17.045,15.848 z" /><path
                   id="path142"
                   style="fill:#231f20;fill-opacity:1;fill-rule:nonzero;stroke:none"
                   d="m 349.1188,97.3004 h -8.608 v -10.49 h 8.608 c 3.192,0 5.586,2.053 5.586,5.245 0,3.135 -2.394,5.245 -5.586,5.245 m -16.703,6.955 h 17.786 c 8.266,0 12.77,-5.587 12.77,-12.256 0,-6.614 -4.561,-12.143 -12.77,-12.143 h -9.691 v -13.625 h -8.095 z" /></g></g></g></g></g></g></g></svg>