<svg xmlns="http://www.w3.org/2000/svg" width="137" height="38" viewBox="0 0 137 38" fill="none"><g clip-path="url(#clip0_49_862)"><path d="M48.3623 30.6172C47.4517 31.7835 46.2772 32.7545 44.8709 33.5035C43.47 34.2498 41.9533 34.6296 40.3639 34.6296C38.4727 34.6296 36.727 34.1321 35.1699 33.1504C33.6073 32.166 32.3439 30.8259 31.4144 29.1701C30.485 27.5143 30.0136 25.6579 30.0136 23.6517C30.0136 21.6455 30.4769 19.8078 31.3902 18.1467C32.3035 16.4829 33.5562 15.1294 35.1187 14.129C36.6758 13.1312 38.4404 12.6257 40.3666 12.6257C41.8348 12.6257 43.3003 12.9734 44.72 13.6609C46.1398 14.3483 47.3655 15.3487 48.3623 16.638L48.4862 16.7959L51.4981 15.207L51.3419 14.9876C50.0999 13.2489 48.5051 11.8446 46.6004 10.8121C44.6904 9.77953 42.5945 9.25525 40.3666 9.25525C38.4862 9.25525 36.6893 9.63241 35.0271 10.376C33.3676 11.1197 31.8913 12.1602 30.644 13.4736C29.3966 14.7843 28.4026 16.3251 27.6913 18.0531C26.9801 19.7838 26.6191 21.6669 26.6191 23.6544C26.6191 26.2758 27.2441 28.702 28.4726 30.866C29.7038 33.0273 31.3767 34.7767 33.443 36.0607C35.5147 37.3473 37.845 38.0027 40.3639 38.0027C42.5918 38.0027 44.6877 37.4784 46.5977 36.4459C48.5024 35.4133 50.0972 34.0197 51.3365 32.2997L51.4954 32.0804L48.4862 30.4621L48.3623 30.6199V30.6172Z" fill="#4D133B"></path><path d="M122.528 10.7746C120.806 9.76615 118.875 9.25256 116.787 9.25256C114.699 9.25256 112.703 9.7822 110.963 10.8281C109.346 11.8018 108.042 13.0857 107.089 14.6506C106.132 13.0857 104.826 11.7991 103.199 10.8281C101.447 9.7822 99.4862 9.25256 97.3607 9.25256C97.2421 9.25256 97.1263 9.25791 97.0078 9.26059H96.9216H96.7896C96.6926 9.25524 96.5956 9.25256 96.4959 9.25256C94.4081 9.25256 92.4765 9.76347 90.755 10.7746C89.0363 11.783 87.6489 13.1606 86.6305 14.8672C85.6149 16.5765 85.0977 18.4944 85.0977 20.5675V37.3018H88.4921V21.1052C88.4921 20.8938 88.5029 20.6691 88.5217 20.4043C88.6187 19.1605 88.9851 17.9862 89.6074 16.9189C90.3509 15.6456 91.3558 14.6024 92.595 13.8213C93.8208 13.051 95.1947 12.6577 96.6791 12.6524H96.7411C98.2281 12.6577 99.6102 13.0215 100.844 13.7331C102.089 14.4499 103.091 15.453 103.824 16.7183C104.556 17.9808 104.925 19.4574 104.925 21.1078V37.0878L104.971 37.3045H108.347V21.1078C108.347 19.4601 108.719 17.9835 109.449 16.7183C110.181 15.4557 111.184 14.4499 112.428 13.7331C113.673 13.0162 115.063 12.6524 116.563 12.6524C118.064 12.6524 119.47 13.0456 120.704 13.8213C121.943 14.6024 122.943 15.643 123.678 16.9189C124.411 18.1922 124.783 19.5992 124.783 21.1052V37.3018H128.177V20.5675C128.177 18.4971 127.663 16.5792 126.644 14.8672C125.629 13.158 124.241 11.7804 122.52 10.7746H122.528Z" fill="#DE325A"></path><path d="M74.5987 11.1946C72.5243 9.90792 70.1967 9.25256 67.6778 9.25256C65.7974 9.25256 64.0006 9.62973 62.3384 10.3734C60.6789 11.117 59.2026 12.1575 57.9526 13.4709C56.7052 14.7816 55.7112 16.3224 54.9999 18.0504C54.2887 19.7784 53.9277 21.6642 53.9277 23.6517C53.9277 26.2731 54.5527 28.6993 55.7812 30.8633C57.0124 33.0246 58.6826 34.774 60.7516 36.058C62.8233 37.3446 65.1536 38 67.6725 38C69.5717 38 71.3713 37.6228 73.0254 36.8792C74.6768 36.1382 76.1477 35.095 77.3951 33.7816C78.6424 32.4682 79.6365 30.9328 80.3477 29.2155C81.0589 27.4956 81.4199 25.6258 81.4199 23.6517C81.4199 21.0115 80.7949 18.572 79.5664 16.4C78.338 14.2306 76.665 12.4785 74.596 11.1919L74.5987 11.1946ZM78.0281 23.6544C78.0281 25.6071 77.5648 27.4367 76.6515 29.0925C75.7383 30.7483 74.4882 32.1018 72.9338 33.1129C71.3875 34.1187 69.6175 34.6296 67.6752 34.6296C65.7328 34.6296 64.0625 34.1374 62.5081 33.1637C60.9456 32.1874 59.6794 30.8579 58.7392 29.2102C57.8017 27.5651 57.3249 25.6953 57.3249 23.6544C57.3249 21.6134 57.7828 19.8399 58.688 18.1734C59.5905 16.5096 60.8432 15.1534 62.403 14.1423C63.9574 13.1366 65.7328 12.6256 67.6752 12.6256C69.6175 12.6256 71.3632 13.1312 72.923 14.129C74.4856 15.1321 75.7383 16.4882 76.6515 18.1601C77.5648 19.8346 78.0281 21.6829 78.0281 23.6544Z" fill="#C81527"></path><path d="M136.232 10.0042H132.838V37.3018H136.232V10.0042Z" fill="#E66B17"></path><path d="M134.535 4.89511C135.897 4.89511 137 3.79931 137 2.44756C137 1.09581 135.897 0 134.535 0C133.174 0 132.07 1.09581 132.07 2.44756C132.07 3.79931 133.174 4.89511 134.535 4.89511Z" fill="#E66B17"></path><path d="M0 0.778401V5.35788C0 5.80726 0.565737 5.99451 0.848606 5.64409C1.68374 4.61157 2.9122 4.27988 3.75003 4.24243C4.03829 4.24243 4.3454 4.23976 4.68215 4.23976H24.9086V0.775726H0V0.778401Z" fill="#2B2D42"></path><path d="M3.76922 25.8184L3.76114 19.3745C3.76114 18.5667 4.41847 17.914 5.23206 17.914H11.4956C11.5333 17.914 11.5683 17.9113 11.6033 17.9086C11.6868 17.9033 11.7704 17.9033 11.8539 17.9086C11.8889 17.9086 11.9266 17.914 11.967 17.914H19.6961V14.4526L4.08442 14.4392C3.83657 14.4392 3.59411 14.466 3.35974 14.5141C3.35165 14.5141 3.34088 14.5195 3.3301 14.5195C1.58979 14.8806 0.283203 16.4133 0.283203 18.2483V26.2357C0.506804 32.3826 5.53378 37.1975 11.73 37.1975C11.7461 37.1975 11.7596 37.1975 11.7731 37.1975H24.5075V33.7362H11.7246C7.33875 33.7362 3.76922 30.1839 3.76922 25.8184Z" fill="#2B2D42"></path></g><defs><clipPath id="clip0_49_862"><rect width="137" height="38" fill="white"></rect></clipPath></defs></svg>